<svg version="1.2" xmlns="http://www.w3.org/2000/svg" viewBox="0 0 81 82" width="81" height="82">
	<title>con1-svg</title>
	<defs>
		<linearGradient id="g1" x1="20" y1="51.3" x2="51.6" y2="49.6" gradientUnits="userSpaceOnUse">
			<stop offset="0" stop-color="#8db0c1"/>
			<stop offset="1" stop-color="#254c7d"/>
		</linearGradient>
		<linearGradient id="g2" x1="28.1" y1="27.4" x2="51.5" y2="26.1" gradientUnits="userSpaceOnUse">
			<stop offset="0" stop-color="#8db0c1"/>
			<stop offset="1" stop-color="#254c7d"/>
		</linearGradient>
	</defs>
	<style>
		tspan { white-space:pre } 
		.s0 { fill: #212e35 } 
		.s1 { fill: url(#g1);stroke: #2e35b8;stroke-width: .4 } 
		.s2 { fill: url(#g2);stroke: #2e35b8;stroke-width: .4 } 
	</style>
	<path id="Layer" class="s0" d="m0 30.5c0-16.6 13.4-30 30-30h11c22.1 0 40 17.9 40 40v11c0 16.6-13.4 30-30 30h-21c-16.6 0-30-13.4-30-30z"/>
	<g id="Layer">
		<path id="Layer" class="s1" d="m45.1 59.9c0 0.7-0.5 1.2-1.2 1.2h-22.7c-0.7 0-1.2-0.5-1.2-1.2 0-11.1 9-20.1 20.1-20.1 3.9 0 7.7 1.1 10.9 3.2 0.6 0.4 0.7 1.1 0.4 1.6-0.4 0.6-1.1 0.8-1.7 0.4-2.8-1.8-6.2-2.8-9.6-2.8-9.4 0-17.1 7.3-17.7 16.5h21.5c0.7 0 1.2 0.6 1.2 1.2z"/>
		<path id="Layer" fill-rule="evenodd" class="s2" d="m39.8 38.5c-6.5 0-11.7-5.3-11.7-11.8 0-6.5 5.2-11.7 11.7-11.7 6.5 0 11.7 5.2 11.7 11.7 0 6.5-5.2 11.8-11.7 11.8zm9.4-11.8c0-5.1-4.2-9.3-9.4-9.3-5.2 0-9.4 4.2-9.4 9.3 0 5.2 4.2 9.4 9.4 9.4 5.2 0 9.4-4.2 9.4-9.4z"/>
	</g>
</svg>