<svg version="1.2" xmlns="http://www.w3.org/2000/svg" viewBox="0 0 81 82" width="81" height="82">
	<title>con1-svg(3)</title>
	<defs>
		<linearGradient id="g1" x1="16.7" y1="41.7" x2="63.2" y2="39.3" gradientUnits="userSpaceOnUse">
			<stop offset="0" stop-color="#8db0c1"/>
			<stop offset="1" stop-color="#254c7d"/>
		</linearGradient>
	</defs>
	<style>
		tspan { white-space:pre } 
		.s0 { fill: #212e35 } 
		.s1 { fill: url(#g1);stroke: #f66962;stroke-width: .4 } 
	</style>
	<path id="Layer" class="s0" d="m0 30.5c0-16.6 13.4-30 30-30h11c22.1 0 40 17.9 40 40v11c0 16.6-13.4 30-30 30h-21c-16.6 0-30-13.4-30-30z"/>
	<g id="Layer">
		<path id="Layer" fill-rule="evenodd" class="s1" d="m30.2 23.5q0 0.1 0 0.1l-0.3-0.2q0 0 0.1 0 0 0 0 0.1 0 0 0.1 0 0 0 0 0 0.1 0 0.1 0zm0.1-0.1q0 0 0 0 0 0 0 0 0 0 0 0l-0.2 0.1zm0 0q0 0 0 0 0 0 0 0zm8.7 8.6l-8.6-8.5q0 0 0 0zm0 0l14.4-14.4c0.4-0.4 1-0.4 1.4 0l8.1 8.1c0.4 0.4 0.4 1.1 0 1.4l-14.3 14.4 10.2 9.7q0.2 0.2 0.2 0.4c2.5 2.6 2.5 6.7-0.1 9.3l-1.1-1.7c1.4-1.6 1.4-4 0.2-5.7l-2.5 2.4-1.1-1.6 2.3-2.3-10.2-9.8-1.6-1.6zm-18.2 1q0 0 0 0 0 0-0.1 0 0-0.1 0-0.1 0 0 0 0l0.2-0.1zm8.7 8.6l-8.7-8.5q0 0 0 0 0 0 0-0.1 0 0 0 0 0 0 0 0zm29.5 19.3c-1.3 1.3-2.9 2-4.7 2-1.7 0-3.2-0.6-4.5-1.7q-0.2-0.1-0.5-0.3l-10.1-9.9-12.6 12.6q-0.3 0.3-0.7 0.3-0.4 0-0.7-0.3l-8.2-8.2c-0.3-0.3-0.3-1 0-1.4l12.5-12.4 8.7 5.7 11.8 11.5 2.3-2.3 1.7 1.1-2.4 2.4c1.7 1.3 4 1.2 5.7-0.2zm-10-29.3c0.4 0.4 0.4 1 0 1.4q-0.3 0.3-0.7 0.3-0.4 0-0.7-0.3l-3.4-3.4-3.8 3.8 6.9 6.7 13.6-13.6-6.8-6.8-4.1 4.1-0.3 2.5zm0.7-5.3l0.3-2.5 3.4 3.4c0.4 0.4 0.4 1 0 1.4q-0.3 0.3-0.7 0.3-0.4 0-0.7-0.3zm0 0l-1.1-1.1-3 3 3.4 3.4zm-18.2 14.5l-8.1-7.9 1.6-0.5c0.3-0.1 0.6-0.3 0.7-0.6l0.7-2.7 2.7-0.8c0.3 0 0.5-0.3 0.6-0.6l0.5-1.6 14.8 14.6 9.4 13.7-2.1 2.1-14.1-9.2-6.7-6.5zm21.9-12.2l-0.1-0.1zm-0.2-0.1c0.3-0.3 0.3-0.8 0-1.2zm-36.3-7.6l3.7 11.9zm8.4 6.5c-0.3 0.1-0.5 0.4-0.6 0.7l-0.8 2.6-1.7 0.5-2.9-9.1 9.2 2.8-0.5 1.7zm12.4 22.3l-6.9-6.7-3.7 3.7 3.4 3.4c0.4 0.4 0.4 1 0 1.4q-0.3 0.3-0.7 0.3-0.4 0-0.7-0.3l-3.4-3.4-2.6 2.6 3.4 3.4c0.4 0.4 0.4 1 0 1.4q-0.3 0.3-0.7 0.3-0.4 0-0.7-0.3l-3.4-3.4-2.6 2.7 6.7 6.8zm19.9 9.8q0.1-0.1 0.2-0.2l-2.2-3.3-1.7 1.6 3.3 2.2q0.2-0.1 0.4-0.3zm-36.9-26.5l8.7 8.6m24-13l-0.2-0.1"/>
	</g>
</svg>